PathFileType	4	(X/Y/Z)	TVC_36_Cal_03_0_static_RCNL2025.trc
DataRate	CameraRate	NumFrames	NumMarkers	Units	OrigDataRate	OrigDataStartFrame	OrigNumFrames
100	100	10	27	mm	100	35	139
Frame#	Time	R_Shoulder			L_Shoulder			C7			J_Notch			R_Elbow			L_Elbow			R_Wrist			L_Wrist			R_Asis			L_Asis			R_Psis			L_Psis			Sacral			Thoracic			Sternum			R_Thigh_Lateral			R_Knee_Lateral			R_Shank_Lateral			R_Ankle_Lateral			R_Heel			R_Toe			L_Thigh_Lateral			L_Knee_Lateral			L_Shank_Lateral			L_Ankle_Lateral			L_Heel			L_Toe		
		X1	Y1	Z1	X2	Y2	Z2	X3	Y3	Z3	X4	Y4	Z4	X5	Y5	Z5	X6	Y6	Z6	X7	Y7	Z7	X8	Y8	Z8	X9	Y9	Z9	X10	Y10	Z10	X11	Y11	Z11	X12	Y12	Z12	X13	Y13	Z13	X14	Y14	Z14	X15	Y15	Z15	X16	Y16	Z16	X17	Y17	Z17	X18	Y18	Z18	X19	Y19	Z19	X20	Y20	Z20	X21	Y21	Z21	X22	Y22	Z22	X23	Y23	Z23	X24	Y24	Z24	X25	Y25	Z25	X26	Y26	Z26	X27	Y27	Z27
35	0.34000000	-236.144424	1388.483032	44.688873	-350.175842	1373.130127	-300.035248	-342.100159	1433.241821	-108.221039	-184.769196	1319.437256	-148.253098	-232.101089	1118.249023	178.367737	-314.068634	1076.125854	-411.704773	-195.979973	899.085083	133.776299	-207.841568	886.220245	-392.665527	-188.467010	898.965576	-24.300100	-284.434967	903.215515	-266.902924	-376.518219	932.217957	-37.166496	-408.830383	924.927612	-113.744415	-392.674301	928.572784	-75.455456	-376.810486	1153.114136	-86.634224	-149.960526	1168.352783	-172.699127	-236.985275	632.943237	53.499416	-316.517761	459.667908	-2.572290	-339.119232	259.888611	25.213490	-343.019867	68.958649	-56.457283	-391.407745	55.356171	-103.486435	-218.140121	39.954720	-96.426956	-338.666656	673.116760	-357.111542	-311.110870	466.712646	-315.927216	-373.656708	275.357422	-330.185089	-308.089264	70.216217	-316.602936	-314.527863	51.225891	-253.777466	-192.894394	44.981525	-377.809387
36	0.35000000	-236.278824	1388.534180	44.534378	-350.033752	1373.079346	-300.203705	-341.966278	1433.222168	-108.462646	-184.705643	1319.461060	-148.307739	-232.366333	1118.413086	178.320740	-313.991852	1076.380249	-411.753448	-196.188828	899.285858	133.865028	-207.585449	886.186798	-392.818222	-188.634232	898.977051	-24.552002	-284.377869	903.146118	-267.036621	-376.556976	932.206848	-37.256859	-408.953003	924.980835	-113.892990	-392.754990	928.593842	-75.574924	-376.849823	1153.280884	-86.720970	-149.847763	1168.366943	-172.668167	-237.254623	633.135498	53.606899	-316.469299	459.627014	-2.569144	-338.963440	259.911194	25.158560	-343.002411	69.176186	-56.586170	-391.353088	55.317600	-103.547760	-218.174484	39.976234	-96.394615	-339.408417	673.461548	-356.511444	-311.067871	466.718628	-315.991852	-373.631165	275.291901	-330.286896	-308.116730	70.173889	-316.591583	-314.475555	51.176277	-253.789749	-192.877457	44.935894	-377.853760
37	0.36000000	-236.326385	1388.636108	44.452358	-349.977051	1373.025391	-300.346558	-341.927368	1433.210693	-108.733177	-184.681839	1319.453125	-148.398254	-232.590729	1118.612915	178.443848	-313.992157	1076.318604	-411.767303	-196.394592	899.378296	133.937447	-207.413589	886.115112	-392.929138	-188.647598	899.026794	-24.386063	-284.320251	903.149963	-267.114624	-376.725830	932.231140	-37.381905	-408.929199	925.048218	-113.955589	-392.827515	928.639679	-75.668747	-376.878448	1153.358643	-86.846535	-149.737579	1168.443970	-172.712982	-237.114899	633.124878	53.559822	-316.431305	459.654358	-2.588357	-338.997864	259.952576	25.166960	-342.956970	68.939270	-56.541927	-391.293671	55.317581	-103.562370	-218.447708	39.880653	-96.415016	-338.858643	673.134033	-357.032440	-311.061371	466.567810	-316.051453	-373.668732	275.351410	-330.272156	-308.122467	70.239914	-316.670044	-314.463806	51.155586	-253.717911	-192.877701	44.944096	-377.862305
38	0.37000000	-236.351288	1388.697632	44.234886	-349.770599	1372.986328	-300.496429	-341.993195	1433.355713	-108.913086	-184.600128	1319.430176	-148.504974	-232.839737	1118.708862	178.483246	-313.577087	1076.012695	-412.024170	-196.535042	899.473450	134.138325	-207.164795	886.091827	-393.044678	-188.724792	899.073914	-24.408005	-284.442688	902.905701	-266.822815	-376.820648	932.346252	-37.467766	-408.962616	924.988464	-114.172638	-392.891632	928.667358	-75.820202	-376.932007	1153.377441	-86.942307	-149.542847	1168.406372	-172.848068	-236.710068	632.777466	53.290672	-316.392181	459.637177	-2.609756	-338.939087	259.884979	25.087652	-343.069153	68.982208	-56.547768	-391.336304	55.283894	-103.628822	-218.179840	39.895481	-96.392532	-339.313293	673.535645	-356.634521	-311.042572	466.663696	-316.078217	-373.557739	275.298950	-330.425385	-308.110107	70.159424	-316.616241	-314.547821	51.237812	-253.747452	-192.874390	44.935951	-377.859772
39	0.38000000	-236.383408	1388.728760	44.124275	-349.696320	1372.963623	-300.710846	-342.018616	1433.383057	-109.036346	-184.578812	1319.490723	-148.723907	-233.058945	1118.892944	178.483749	-313.279175	1076.064209	-412.298309	-196.698166	899.623260	134.327961	-207.035866	886.096313	-393.209839	-188.833344	899.040283	-24.489882	-284.234497	903.233093	-267.280243	-376.848846	932.330688	-37.694000	-409.057953	925.152710	-114.216080	-392.953400	928.741699	-75.955040	-376.918640	1153.466431	-87.089424	-149.505951	1168.391724	-172.853470	-236.932953	632.984497	53.394478	-316.383667	459.735809	-2.738356	-338.862976	259.829529	25.019432	-343.082184	68.976486	-56.506538	-391.377014	55.333035	-103.615631	-218.135788	40.061184	-96.434608	-338.759979	673.135498	-357.303253	-311.066345	466.558655	-316.181152	-373.587280	275.314178	-330.470947	-308.119019	70.236610	-316.669556	-314.544159	51.171974	-253.844833	-192.811279	45.012772	-377.830719
40	0.39000000	-236.379227	1388.743896	43.945248	-349.591766	1372.921997	-300.919464	-341.935822	1433.514771	-109.334152	-184.510757	1319.396362	-148.782089	-233.294220	1118.984497	178.505646	-313.117462	1076.014771	-412.461639	-196.903259	899.719330	134.456879	-206.854424	886.038544	-393.306824	-188.879379	898.965942	-24.586308	-284.218597	903.236572	-267.466309	-377.112762	932.418945	-37.732063	-409.228424	925.216614	-114.345139	-393.170593	928.817780	-76.038601	-376.845276	1153.580688	-87.307945	-149.492126	1168.327393	-172.869003	-237.212845	633.051392	53.352070	-316.300415	459.731354	-2.718572	-338.865601	259.853882	25.019262	-343.041992	69.079788	-56.517048	-391.388519	55.410877	-103.581749	-218.113007	40.045101	-96.508911	-338.392609	673.077393	-357.575714	-310.972351	466.754700	-316.227417	-373.637665	275.401550	-330.453857	-308.121033	70.249504	-316.679871	-314.540222	51.246826	-253.811554	-192.805237	45.019588	-377.809052
41	0.40000000	-236.406784	1388.806885	43.807922	-349.567596	1372.929932	-301.089294	-341.932129	1433.507812	-109.386986	-184.480835	1319.414795	-148.897964	-233.484055	1119.140991	178.397125	-313.089844	1075.890137	-412.655365	-197.165520	899.701752	134.732559	-206.722000	886.016998	-393.420471	-188.976181	899.039856	-24.584881	-284.137909	903.297546	-267.579620	-377.236176	932.529663	-37.782333	-409.283112	925.206421	-114.578308	-393.259644	928.868042	-76.180321	-376.877655	1153.655640	-87.397545	-149.501007	1168.327759	-172.928864	-237.255432	633.167664	53.402927	-316.304749	459.783997	-2.798501	-338.862396	259.957977	24.994301	-343.007202	69.073677	-56.563648	-391.350311	55.341213	-103.619461	-218.133850	40.062843	-96.581932	-338.429443	673.044189	-357.696777	-310.936401	466.805603	-316.285156	-373.538605	275.190765	-330.777588	-308.114807	70.225578	-316.691132	-314.519897	51.249306	-253.769333	-192.805069	45.004799	-377.806152
42	0.41000000	-236.509644	1388.865234	43.587807	-349.411987	1372.868896	-301.276337	-341.853363	1433.437988	-109.572243	-184.447250	1319.463013	-149.210449	-233.624176	1119.240601	178.323700	-313.064514	1075.782471	-412.828674	-197.397461	899.847412	134.753304	-206.586174	885.998688	-393.527573	-189.116333	899.076172	-24.646078	-284.092041	903.221497	-267.675446	-377.289459	932.553955	-37.898880	-409.059174	925.046204	-114.883430	-393.174316	928.800079	-76.391155	-376.975403	1153.702271	-87.563332	-149.425659	1168.296997	-173.046631	-237.335083	633.100586	53.246750	-316.359070	459.821442	-2.784297	-338.812744	259.934052	25.011786	-343.071625	69.130859	-56.481667	-391.368530	55.353424	-103.615822	-218.139877	40.066444	-96.585472	-338.486725	673.034302	-357.759216	-310.906952	466.830383	-316.276184	-373.478210	275.182037	-330.814117	-308.144867	70.200356	-316.647278	-314.547089	51.262436	-253.756409	-192.813416	45.013004	-377.842651
43	0.42000000	-236.521225	1388.932739	43.469807	-349.353424	1372.775146	-301.448242	-341.850189	1433.448853	-109.697701	-184.342087	1319.423462	-149.306992	-233.698700	1119.343262	178.254456	-312.921356	1075.785522	-413.003387	-197.684952	899.975739	135.009987	-206.456596	885.966980	-393.656021	-189.097534	899.081848	-24.702396	-283.970276	903.267639	-267.863556	-377.378723	932.516724	-38.060818	-409.186005	925.157898	-115.012527	-393.282364	928.837311	-76.536673	-377.097870	1153.684937	-87.737198	-149.371094	1168.197876	-173.167480	-237.398224	633.054016	53.185585	-316.321198	459.848572	-2.846948	-338.802643	259.939606	25.029541	-343.078613	69.155098	-56.511246	-391.439392	55.439838	-103.568787	-218.266571	40.128250	-96.494133	-338.530731	673.013123	-357.768677	-310.916931	466.776184	-316.342316	-373.564423	275.202667	-330.845428	-308.125488	70.132156	-316.658600	-314.561035	51.269932	-253.781784	-192.815430	45.018867	-377.827698
44	0.43000000	-236.700531	1388.995972	43.342697	-349.305756	1372.752075	-301.659668	-341.811523	1433.417114	-109.897308	-184.424927	1319.439575	-149.517151	-233.782547	1119.535522	178.227463	-312.763275	1075.766357	-413.145294	-197.751106	899.890533	135.155575	-206.409698	885.882599	-393.758896	-189.201920	899.119202	-24.770908	-284.025452	903.202148	-268.026154	-377.341919	932.554504	-38.332748	-409.278625	925.179688	-115.108009	-393.310272	928.867096	-76.720379	-377.232086	1153.884766	-87.742439	-149.194168	1168.180908	-173.234009	-237.594757	633.311401	53.243958	-316.384827	459.813629	-2.870659	-338.824432	259.970734	25.067438	-342.970520	69.088905	-56.442398	-391.444550	55.443607	-103.532181	-218.224167	40.113804	-96.545242	-338.524536	672.962036	-357.908508	-310.991882	466.792664	-316.402039	-373.470093	275.270233	-330.908447	-308.125458	70.144989	-316.650482	-314.492859	51.164619	-253.798737	-192.817383	45.023155	-377.844330
